# xmcd
#
# Track frame offsets:
# 150
# 20802
# 33028
# 55929
# 77683
# 97480
# 115814
# 140636
# 156489
# 172762
# 190480
# 209382
# 227884
# 247154
# 265796
# 286755
# 305786
# 325329
#
# Disc length: 4545 seconds
#
#
# Revision: 1
# Processed by: cddbd v1.5.2PL0 Copyright (c) Steve Scherf et al.
# Submitted via: FreeRIP 2.941 
#
DISCID=0d11bf12
DTITLE=HELLBILLIES - RØTA - HELLBILLIES' BESTE
DYEAR=2006
DGENRE=Country
TTITLE0=Ei krasafaren steinbu
TTITLE1=Aksjon på Ål
TTITLE2=Røta
TTITLE3=Baka ein stein
TTITLE4=Som eit lauv i eit vindkast
TTITLE5=So som so
TTITLE6=Sju
TTITLE7=På Ål stasjon
TTITLE8=Gamle Bry'n
TTITLE9=Den finaste eg veit
TTITLE10=Gode spørsmål
TTITLE11=Tolleiv
TTITLE12=Eg gløymer deg aldri
TTITLE13=Sur som rognebær
TTITLE14=Som ein båt på land
TTITLE15=Råka tå ei pil
TTITLE16=Mikrobølgeliv
TTITLE17=Ho Birgjit Lien
EXTD=
EXTT0=
EXTT1=
EXTT2=
EXTT3=
EXTT4=
EXTT5=
EXTT6=
EXTT7=
EXTT8=
EXTT9=
EXTT10=
EXTT11=
EXTT12=
EXTT13=
EXTT14=
EXTT15=
EXTT16=
EXTT17=
PLAYORDER=
